<svg xmlns="http://www.w3.org/2000/svg" viewBox="0 0 1000 1000"><style>svg { background: #dff; } path { vector-effect: non-scaling-stroke; stroke-width: 1px; stroke-linejoin: round; stroke-linecap: round; stroke: #000; } .prefecture { fill: #fff; } .prefecture:hover { stroke-width: 2px; } .keiken-1 { fill: #0ff; } .keiken-2 { fill: #0f0; } .keiken-3 { fill: #ff0; } .keiken-4 { fill: #f00; } .keiken-5 { fill: #f0f; } .separator { fill: none; }</style><g class="container"><path class="prefecture" data-name="北海道" d="M672.3 244.5l4.6 5.4 5.2 1.4 5.1 4.3-3.4 1.7-1.6 2.7-4.4 2-1.9-1.6-6.2-1.7-3.6-2-3.9.4-.7 3.8-2 1.2-4.1 1.7-1.1 2.4.3 6.9-1 1.6-6.6 2.4-2.2 4.6-5.4-.9-2.6-2.2-1.8-4.7-.1-5.2.5-3.6 4.7-8.2.1-7.5-3-6.3-2.2-3.1-4.5-1.1-2-4.2-3.6-1.1-1.6-4.3.5-3 2.3-3.3.6-3.6-1.6-8.6 4.2-4.7 4.6-.1 4.8-4.2 1.1-3.1 5.8 1.4.1-3.2 2-2.8.9-1.7 1.4-2.2 4.5-3.6.2-1.8-3.9-5.2-5.5-5.8.4-3.6.9-3h2.7l2.4-2.9 4.4 3.7 2.2.8 3.2 2.5 6.4 2.6 7.2-2.6.5 3.2 6.2 2.1 5.4-2.8 5.2-8.8-.1-5.5-3.3-5.7.9-3.8-2.8-7.6.2-1.4 1.7-4 8.4-4.6.9-1.9 1.6-5.5.2-3.9-.8-8.9-.7-6.1 1.4-2.1 2.4-5.3 1.1-12.6-1.8-9.7-1.4-4.1-3.6-8.9-4.1-8.3-.4-3.7 3-8 2-1.8 5.4-1.8 2.7-5.8 4.7 3.5 1.5 2.9 5.2 3.4 8 9.3 6.2 6.3h.9l2 4.3 9.1 12.8 4.7 4 7 7.2 4.7 3.2 7.9 5.2 2.9 1.5 3.3 3.4 6.5 2.9 9.6 3.2 9 2.1 6 .7 5.5-.1.5 4.1 2.3 3.3 2.8 1.2 8.3 1.3 4.6-.1 5.7-1.5 4.6-5 3.5-5.5 7.1-6.7 1.1-3.3 4.2-6 1.7 4.4-2.1 6.1-1.5 1.8-.4 4.3-3.3 5.4-2 5.7.4 1.7-1.3 3.5.7 3.3 4.4 6 3.9 1.1v.1l-2 .6 2.3 4.2 1.5 5.5 2.8 4.9 3.6 3 4.5 1.2.8-1.8 5.2-6.3 6.8-.5-2 3.1-6 2.4-1.6 2.1-.6 4-2.8 1.7-6.4 1.6-5.1 2.7-3.4.6-1 5.3-3.6 3.4-4.9 1-4.9-3.5-1.7 3.2 2.6 3.7-6.7-.3-6.2 1.2-4.9-1.2-1.3-1.7-5.2.5-9.3 5.4-5.5 5.2-7.1 8.3-6.5 8.8-5.2 9.9-2.2 6.2-.5 4.2 1.1 4.9v6.3l-3.8 6.4-3.9-4.2-3.1-1.8-4.7-3-4.6-.7-9.7-3.6-7.9-3.4-6.4-3.7-5.3-4.3-2.3-1.9-6.4-1.2-2.8-2.4-4.2-3.2-3.4-.7-1.8-1-5.9-.3-8.8 3.9-9.6 7.8-5.6 6.2-6.5-1.3-1.4-4-4.9-4-2.2-2.9-8.3-.6-2.7.1-3.2 3.5-4.2 9.5-.5 5.7.9 2.1 4.1 1.1 3.2 2.5 2.7 2.7 2.9 1.2 5.4-2 2.9 2.2zm221.4-109.8l2.8 1-.1 2.5-2.6 1.7-2.6-3.2zm-279.4 98l-1.7 4.4-.7 5.6-3.1.8-1.1-6.3 1.2-2.3zm51.8-193.3l3.5.6.7 7.8-3.3-3.6zm12.8 20.9l-4.6-3.4.2-3.7 1.6-2 4.9 2.2 1.3 3.9z"/><path class="prefecture" data-name="青森県" d="M666.4 307.8l1.6 5.2 2.2 1.7 2.8-.7 2.4-4 .6-6.2 2.7.6 2.8 3.3 4 2.8 3 .3 2.9-5.6.6-6.7 1.3-4.1-.9-3.2-3-3.8-1.7-.3-1.9 4-2.4 1.9-3.4-.8-6.5 3.3-3.1.3.5-3.7-.1-2.6 1.8-8.2 2.1-4.8 2.3-3.7 3 2.4 5.1 1.5 6.2 5.3 3.9.1 5.6-3.1-2.1 9.9v6.3l-.1 6.9.8 7.7 2.8 12.6 1.3 3.9 2 3.5 3.3-.2 3.4 3.9 1.7 1.3-3.8 2.5-.5 2.3-1.2 1-3.3-.8-3.9 1.1-1.8 1.9-1.7-2.4-5.2 4.2-1.7.2-5.8 5.3-3.3-1.4 1-8.8-.2-1v-.9l-2.6.5-3-1 .6-4.2-3 1.5-5.9 4.7-3.9-1.1-2.6 1.5-4.4-3.7-4 .8-.5 1.7-8.5.4-1.8.2-1.8-1.8-3 2.2-2.9.4.4-3.9-1.6-5.4-2.6-1.7 3.2-2.4 2.5-4.7 3.1-2.2 3.6.7 4.6-3.1 1.9-6.3.7-5.6-.9-6.3 1.2-8.5 4.9 3.3 4.4-2.4 2 .5 2.4 2.5-.3 4.2.8 4.3z"/><path class="prefecture" data-name="岩手県" d="M729.7 370.7h-.1l1.1 3.4-.3 5.1 2.5 6.5 2.1 1.7-2.7 2.8-2.2 6.2-1.5 3.3.9 4.4-.1 5.2-1.4 1.7v3.9l-3 2-4.4 4.6-3.7 1.2-3.1-1.3-3.8 1.2.5 4.3-3.1 8.4-2.8-2.5-3.8 1.4-2.4 2.8-2.8-1.9-2.7-2.7-.7-3.4-4.9 1-1.1-1.7-6.5-3.2-2.4.5.4-3.7.5-3.4-2.2-.4-.3-3.3 2.6-2.3-2-1.7.9-1.9-4.5-3.4.3-2.6-2.3-2.6 1.7-4.8 1.6-3.2-.4-2.6 2.8-2.4 1-5.1-1.3-3.1 1.8-3.9-2.5-1-.4-2.6 4.4-.6-1.6-5 .9-8.2-1.1-4.4 4.1-4.7 3.3 1.4 5.8-5.3 1.7-.2 5.2-4.2 1.7 2.4 1.8-1.9 3.9-1.1 3.3.8 1.2-1 .5-2.3 3.8-2.5 4.4 6 1.2 2.9 1.9 3.5-1.2 3 2.1 3.1.9 4.4 4.4 3.7.9 6 1.2 3.3z"/><path class="prefecture" data-name="宮城県" d="M669.3 460.6l.9-3.8 1.5-1-3.3-4.9 1-1.7-1.7-4.8 2.6.4.9-3 .4-4.2-4.5-7.4 4.5-.2 2.8-2 2.1-2.4h.8l2.4-.5 6.5 3.2 1.1 1.7 4.9-1 .7 3.4 2.7 2.7 2.8 1.9 2.4-2.8 3.8-1.4 2.8 2.5 3.1-8.4-.5-4.3 3.8-1.2 3.1 1.3 1.1 3.1-3 4 .5 1.7-3.1 2.3.6 2.3-.2 2.2-2.9 2.7 3.4 2.2-2 2.9 1 6.1h.1L711 455l2.1 2 1.2 6.4-3.6-3.1-.3-1.8-4.3-2-5 .7-4.7 3-.9-1.1-3 1.9-1.1.7.1 1.9 1.8.6-1.4 1.2-.1.3-.5-.2.1-.3-.1-.1h-.1l-1.4 3.2-1.3 3.4-.8 2.6-.7 5.1-.2 3.1 1.1 5.8-3.5.5v2.9l.1 2.8-3.6 1-3.8-1.1-.6-5.1-3.3-1.2-.9.3-5.2.7-.2-.1-.5-2.7-3.2-.8-2.8.9-3.3-1.4-.3-4.7 4.6-.3 3.1-4.5v-.8l1.4-2.4-.5-4.1 2-5.9z"/><path class="prefecture" data-name="秋田県" d="M642.8 389.2l-.3-7.3-1.4-5-3.2-4.3-4.7-.5-1.9 2-2.7-.1-2.3-3.3-1.1-4.5 4.8 2.1 3.3-2 3.2-5.1 1.1-3.2 1.6-8.3-.4-6.4-3.6-3.2 2.9-.4 3-2.2 1.8 1.8 1.8-.2 8.5-.4.5-1.7 4-.8 4.4 3.7 2.6-1.5 3.9 1.1 5.9-4.7 3-1.5-.6 4.2 3 1 2.6-.5v.9l.2 1-1 8.8-4.1 4.7 1.1 4.4-.9 8.2 1.6 5-4.4.6.4 2.6 2.5 1-1.8 3.9 1.3 3.1-1 5.1-2.8 2.4.4 2.6-1.6 3.2-1.7 4.8 2.3 2.6-.3 2.6 4.5 3.4-.9 1.9 2 1.7-2.6 2.3.3 3.3 2.2.4-.5 3.4-.4 3.7h-.8l-2.1 2.4-2.8 2-4.5.2-2.5-.5-.1-.1-2.1-2.5-.9-2.7-2.7-.1-2.2-2.3-8.2-.5-4.2-2.4-.1-2.4-8.9 1.3 2.4-10.3 2.3-1.5 1.6-5.6z"/><path class="prefecture" data-name="山形県" d="M669.3 460.6l-1.9 1.7-2 5.9.5 4.1-1.4 2.4v.8l-3.1 4.5-4.6.3.3 4.7-.4 3.5v5l1 2.1-2 3.1-3.1-.4-2 1.4-4.3-1.8-2.1.6-2.8-4-6.2 1.5-3.4-1.3-.8-.9v-.5h-.5l-1.1.5-2.6-2.7-.2-1.4 2.7-11.7-.5-2.7 1.3-2.9 3.2.6 3.6-2.3 1.7-2.8-1.2-2.3-2.8-2.3-4-.7-1.3-2.1.5-5.3-3.9-.8-4.3-2.3 2.7-7 3.9-3.8 2.8-4.3 3.2-11.1 1.5-6.7-.5-1.2 8.9-1.3.1 2.4 4.2 2.4 8.2.5 2.2 2.3 2.7.1.9 2.7 2.1 2.5.1.1 2.5.5 4.5 7.4-.4 4.2-.9 3-2.6-.4 1.7 4.8-1 1.7 3.3 4.9-1.5 1z"/><path class="prefecture" data-name="福島県" d="M657.1 485l3.3 1.4 2.8-.9 3.2.8.5 2.7.2.1 5.2-.7.9-.3 3.3 1.2.6 5.1 3.8 1.1 3.6-1-.1-2.8v-2.9l3.5-.5 1.5 3.2 1.3 1 1.5 6 1.7 12.3.3 2.8v2.3l.2 3.2-.1 3.4-.5 4.5-.4 3.5-.8 12.6-2 2-5.6 2.8-.5 2.4-8.6-2.3-1.5-2.4-.8.5 1.3 3.8-1.1.7-1.9 1.2-2.9 3.3-4.2-2.6-.7-2.7-4-2.9-1 .2-1-.6.2-3.9-2.5-1.1-2.5-3.8-2.3-1.5-6.5-1.3-.3-.3-4.5.5-1.9 3.8-2.2-.1-13.2 7.6h-1.6l-3.1 3.6-7.7-1.5 1.1-6.2-1.3-4.1v-4.4l-3.5-2.6 2.1-3.3.7-6.1-1.6-1.2 2.4-2.6 6.9-.7.7-2.9 8.1-.5-2-8.1 2.4-1.2 2.5-5.3 3.2-3.5.6-.3-1.1-1.3-.5-.9-1.3.5 1.1-.5h.5v.5l.8.9 3.4 1.3 6.2-1.5 2.8 4 2.1-.6 4.3 1.8 2-1.4 3.1.4 2-3.1-1-2.1v-5z"/><path class="prefecture" data-name="茨城県" d="M681.4 560.4l-4.3 12.8-.1 3.2.8 4-1.3 1.5-1.4 4.8 3 10.3 2.5 5.2 2.1 3.3-.2.1-1.8.4h-.1l1.2 1 1.5-1.8 1.7 4.3 5.7 7-1.8.3-4.7-4.1-3.7-2.3-2.5-2.7-4.4-3.1-3.5 2.9-2.7.7h-.2l-4.1 2-3.6.8-2.2 1-1 .1-1-1.5-4.7-1.6-1.8-.4-2.1-1.5-1-1.9-.5-.1-5.2-5-1.7-2.7-.4.8-2.5-.9-.8-1.7-.4-.5-.8-3.2v-.2l4.6-1.7 1.7-.8 1.2-4.3 2.6.7.4-2.2 2.4-2.1 3.6-.6 1.2-1.7 3.7-.8 2 .9.7-2.1 2.3-5.5-1.3-6-.7-2.9 3.3-2.5-2.1-4.1.1-8.9 1-.2 4 2.9.7 2.7 4.2 2.6 2.9-3.3 1.9-1.2 1.1-.7-1.3-3.8.8-.5 1.5 2.4 8.6 2.3-2.5 6.7z"/><path class="prefecture" data-name="栃木県" d="M625.9 587.2l-1.7.4-2.8-.6-3.7-4.5 1.6-4.8 1.9-6.3 1.5-1.7-.9-1.7-5.4-.3-1.2-1.1 1.8-6.7-.9-1.7 2.5-3.2-2.7-1.3 1.8-3.7 3.1-3.6h1.6l13.2-7.6 2.2.1 1.9-3.8 4.5-.5.3.3 6.5 1.3 2.3 1.5 2.5 3.8 2.5 1.1-.2 3.9 1 .6-.1 8.9 2.1 4.1-3.3 2.5.7 2.9 1.3 6-2.3 5.5-.7 2.1-2-.9-3.7.8-1.2 1.7-3.6.6-2.4 2.1-.4 2.2-2.6-.7-1.2 4.3-1.7.8-4.6 1.7v.2l-1.2-.4-2.4-3.9-1.3.3z"/><path class="prefecture" data-name="群馬県" d="M606.4 587.8l-1.1 1.3-.5 1.4-1.5 5.2-4 2.2-.8-.4-1.4 2.2-4.8 2.9v.3l-3.6.3-1.9 2.9-1.2-.3-2.8-2.1-.1-3.8.6-1.7-3.3-2.8 2.8-2.2-1.9-4.4 2.5-1.5-.4-6.3-.2-.2-3.5-.4-2.4.8-.7-.4-2.3.2-2.8-1.3.4-6.4 1.3-4.1 4-2.5.4-.9.4-2.3 4.7-1.3 2.5-.9 1.5-1.6 3 1.1 1.8-3.1 4.7-2.3v-3.7l2.3.1-.6-5.4 2.8-.2 2.9-2.2.2-2.3 4 3.9.1 1.5 2.5 1.4 7.7 1.5-1.8 3.7 2.7 1.3-2.5 3.2.9 1.7-1.8 6.7 1.2 1.1 5.4.3.9 1.7-1.5 1.7-1.9 6.3-1.6 4.8 3.7 4.5 2.8.6 1.7-.4 2.6.7 1.3-.3 2.4 3.9-2.6.7-1.1-.8-4.4 1.2-.1.1-2.4-.2-1.3-1.3-1.7-1.1H616l-2.7-.5-1.4.3-3.5-1.6-.1-.1z"/><path class="prefecture" data-name="埼玉県" d="M606.4 587.8l1.9.4.1.1 3.5 1.6 1.4-.3 2.7.5h2.6l1.7 1.1 1.3 1.3 2.4.2.1-.1 4.4-1.2 1.1.8 2.6-.7 1.2.4.8 3.2.4.5.8 1.7 2.5.9.7 1.7.8 1.1 1.5 4.3.8 1.8 1.3 1.5 1.3 2.7-.4 2.2.3 2.8-1.7-.6-.6-.1-1.2-1.1h-2.6l-1.4 2.3-2-1v-.1l-2.5.2-1 1.1-1.3.1h-.1l-1.5 1.1-.9.4-1.4-.5 1.2-2.6-2.2 1.8-2.6.8-2.4.3-.6-.5.1-.1-2.5-1.1-.8-1.5-1.7-1.2-5.7-.5-3.1-.8-3.8-1.7-3.7 2.6-4-.1-2.4-.2-4.1-2.6-.9-4.6 1.9-2.9 3.6-.3v-.3l4.8-2.9 1.4-2.2.8.4 4-2.2 1.5-5.2.5-1.4z"/><path class="prefecture" data-name="千葉県" d="M655.6 629.7l-1-3.2-3.9-2.6-.9-.8-1.9-.9-2.2 1.7-2.2 1.1.6-2 1.4-2.2-1.3-2.5h-.1l.1-2-.3-2.8.4-2.2-1.3-2.7-1.3-1.5-.8-1.8-1.5-4.3-.8-1.1-.7-1.7.4-.8 1.7 2.7 5.2 5 .5.1 1 1.9 2.1 1.5 1.8.4 4.7 1.6 1 1.5 1-.1 2.2-1 3.6-.8 4.1-2h.2l2.7-.7 3.5-2.9 4.4 3.1 2.5 2.7 3.7 2.3 4.7 4.1 1.8-.3-.9 1.9-3.4 1.1-6.5 1.8-3 2.9-1.6 1.6-2.5 3.4-1.8 3-.6 1.6-.8 3.2-.2 2.1.5 3.2.8 1.5-1.1 6.7-1.8 1.1-1 2.2-5.4 1.8-3.8-.3-2.8 4-1.8.4-2.7 2.6-1.6 5.6-5.8.6.1-.1h-.1l-.1-.1.2-.8-.6-.8-3.1-1.3 2.1-.6 1.7-3.6v-4l-1-3.2 2.2-4-1.1-7.7 1.7-.8.4-3.7 2.4-1.3 3.6-1.6 1.6-4.6zm-8-6.9l.2-.5.5.6-.6-.1z"/><path class="prefecture" data-name="東京都" d="M639.5 624.1h-1.2l-.6 1.9-.1 2.1 1.5 3.3h-3.5l-1.2-1.5-1.3-1.6-.6-.5-2.3-1.1h-.3l-1.4-.8-1.8-.5-.5 1.1-2.4.1-.7.7 2.9 2.1-1.2.3-.6.1.9 2-.1 1.9-.8.1-.6-1-1.9-2.4-2.8-2.1-4.6-.5-5.3-3.3-1.4-.2-5.9-3.9h-.1l-1.4-1.7-2-5.1 3.7-2.6 3.8 1.7 3.1.8 5.7.5 1.7 1.2.8 1.5 2.5 1.1-.1.1.6.5 2.4-.3 2.6-.8 2.2-1.8-1.2 2.6 1.4.5.9-.4 1.5-1.1h.1l1.3-.1 1-1.1 2.5-.2v.1l2 1 1.4-2.3h2.6l1.2 1.1.6.1 1.7.6-.1 2h.1l1.3 2.5-1.4 2.2-.6 2-1.1-.2h-.4zm-.9 1.8l.6-.2-.4.6zM620.4 676l3.8 1.8.8 4.1-2.6 1-2.2-2.1zm9.9 40.1l1.6 3.3-3.9 1.1.3-4.1zm13.5 57.4l5 3.5-3.8 1.5-2.2-3.7z"/><path class="prefecture" data-name="神奈川県" d="M636.1 634.1l-2.1.5-1.6 1.2.1.6.4 2.6-.6 1.6.3 3.5.2.1v-.1h.1l4.5 6.6-2.9 1.3.7 3.1-3 .2-.1-3.1-2-3.7h-.1l-.4-1.9-.9-.8-3.1-.4-2.5-.6-3 .4-2.2.2-2.9 1-1.7.7-4.1 3-.4 3.6v1.8l-1.2.5-4-.4-.2-1.5-.7-.4-.6-.5-1.3-2.7.7-2.9.6-.3.6-2.5-.9-4.1-4.2.1.9-2.9 6.2-3.8 2.1-2.5.8-7.3 1.4.2 5.3 3.3 4.6.5 2.8 2.1 1.9 2.4.6 1 .8-.1.1-1.9-.9-2 .6-.1 1.2-.3-2.9-2.1.7-.7 2.4-.1.5-1.1 1.8.5 1.4.8h.3l2.3 1.1.6.5 1.3 1.6 1.2 1.5h3.5z"/><path class="prefecture" data-name="新潟県" d="M603.4 487.9l4.7-.4-.3-2 2.8-1.9 1.1-1.2 4.3-6.1 1.7-5.1-.1-9.3 4-9.8 4.3 2.3 3.9.8-.5 5.3 1.3 2.1 4 .7 2.8 2.3 1.2 2.3-1.7 2.8-3.6 2.3-3.2-.6-1.3 2.9.5 2.7-2.7 11.7.2 1.4 2.6 2.7 1.3-.5.5.9 1.1 1.3-.6.3-3.2 3.5-2.5 5.3-2.4 1.2 2 8.1-8.1.5-.7 2.9-6.9.7-2.4 2.6 1.6 1.2-.7 6.1-2.1 3.3 3.5 2.6v4.4l1.3 4.1-1.1 6.2-2.5-1.4-.1-1.5-4-3.9-.2 2.3-2.9 2.2-2.8.2.6 5.4-2.3-.1v3.7l-4.7 2.3-1.8 3.1-3-1.1-1.5 1.6-1.3-2.1.9-4.3-3.3-2.3-1.9-2.7-1-5.3-2-.5-.2.1-3.1.6-3.6 2.4-1.6 3.6-2.2.6-.9 4.2-3-1.5-5.9 2-4 .6.4-4.6-4.5-.9-4.7 7.4-2.6 1.8-.1.1-1.5-3.4-.6-6.1-4.1-3.1 13.1-5 7.3-5.4 1.6-1.5 3.2.6 3.1-.9 8.5-7.9 5.9-3.9 5.2-9.3 3.1-3.4 2.5-7.7 1.4-4.9 1.9-2.6 6.5-4.8 3-2.2zm-30-21.2l-.4 7.7-2.5 6.5 2.2 1.8 4.3-.1-4.5 10-5.2 4-4.2-.9.3-3.6 2.9-4.2-1.7-1.6-3.3 1.9-.2-5.2 4.2-7.9 4.7-3.7 1.1-3.3z"/><path class="prefecture" data-name="富山県" d="M537.6 574.8l-2.4 2.4-.9 3.7-2.2 2.2-2.2-.2-1.5-1.8h-9.1l-2.1-2.3-3 1.6-2.6-1.1-3.1 4.3-1.7.8-.3 2.5-3.7 3.3-1-3.9-2.3-1.2-5.5 3.7-.4-2.6-.3-5.3 1.8-7.2-1.3-3.2-.2-1.4 1.8-3.1.5-3.7.5-.7.3-1.9 1-4.8.6-2.8 4.8-3.1 3.1.4-2.8 4.8 1.2 2.9 2.5 2.1 1.2 1.1v.2h-.1l.6.2 3.6.6 6.5-.1 3.1-2.5 1.3-3.6.8-3.7 2.7-1.7 2.8-.7 4.4-1.1 4.1 3.1.6 6.1 1.5 3.4-.4.7.4 5.4-.6 2.4.3 1.8-3.1 1.9z"/><path class="prefecture" data-name="石川県" d="M506.2 549.4l-3.1-.4-4.8 3.1-.6 2.8-1 4.8-.3 1.9-.5.7-.5 3.7-1.8 3.1.2 1.4 1.3 3.2-1.8 7.2.3 5.3.4 2.6 2.8 2.8-4.1 8.7-.5 1.2-4.6 1-5.2-5.1-2.9-.2-2.4 1.3-1.5-2.1-3.9-1.8.2-1.7-4.3-3.9 2.7-3.3 3.5-1.9 2.6-2.8 1.9-2.5 4.4-5.7 2.9-4.3 2.4-3.7 2.7-5.3 1.5-4.5.5-5.8-2.2-5.6.2-4.6-2.7-.7 1.3-4.4 1.7-3.5-.6-2.5 6-4.8 3.6.4 7.6-4.3 2.8-2 6.1-2.1 3.6 1.8v3.5l-4.4.8-.8 3.5 1.2 2.8-2.4 1.8-2.8-.4-3.3 3.3-3.6 3.8-2.9-2.6-2.7 3.5-1.3 5.6 3.2-.6 2.1 2.3 3.9-1.7z"/><path class="prefecture" data-name="福井県" d="M454.1 606.7l2.2-2.1 1.3-4.1 3.1-4.2 4-5 2.9-2.3 4.3 3.9-.2 1.7 3.9 1.8 1.5 2.1 2.4-1.3 2.9.2 5.2 5.1 4.6-1 .5 1.1-1.8 4.3 4.1 4.9 1 3.2-2.1 3.6-3.1-.5-2.8 1.4-.7-.8-6.7 2.1-4.7-1.2-2.9-.2-3.7 7.6-4.6-2.7-1.7.4 1.3 6.1-3.2 1.3-.3 2.6h-3.9l-3.8.5-2.8 7-1.8-.5-3.1 1.4-1.1 1.8-3.3.8-2.8-1.5-5.3-.6-2.3-4.3-.8-.4-.9-4 1.8-2.2 2.4 4.2 3.2-1.5.2 1.4-.1.4 2 .4 4.5-.9.7-2.3 3.1-2.3 1.9-1.9-1.9-2.3 2.7 2 5.6-2-1-5.2 2.7-2 1 3.9 2.5-.7.3-3.3-1.3-3.5-2.9-2.9z"/><path class="prefecture" data-name="山梨県" d="M582.5 613.1l1.9-.3 3.3-2.1 4.1 2.6 2.4.2 4 .1 2 5.1 1.4 1.7h.1l5.9 3.9-.8 7.3-2.1 2.5-6.2 3.8-.9 2.9-2.6.7-6.4 1.8-2.4.3-2.1-2.3-2.9-2.8-2.5 4-.7 4 .7 6.8-1.5 1.9-4.5-1.8-1.5-5.9-1.8-1.6-3.8.7-.2-14.2-1.6-5.5-.5.1-1.9-3.9 2.3-2.6-1.5-1.6-.5-1.1 2.8-5.2 1.7 1.5 3.6-5.9.5-.8 6.2 3.4 4.6-.5z"/><path class="prefecture" data-name="長野県" d="M540.2 560.5l.1-.1 2.6-1.8 4.7-7.4 4.5.9-.4 4.6 4-.6 5.9-2 3 1.5.9-4.2 2.2-.6 1.6-3.6 3.6-2.4 3.1-.6.2-.1 2 .5 1 5.3 1.9 2.7 3.3 2.3-.9 4.3 1.3 2.1-2.5.9-4.7 1.3-.4 2.3-.4.9-4 2.5-1.3 4.1-.4 6.4 2.8 1.3 2.3-.2.7.4 2.4-.8 3.5.4.2.2.4 6.3-2.5 1.5 1.9 4.4-2.8 2.2 3.3 2.8-.6 1.7.1 3.8 2.8 2.1 1.2.3.9 4.6-3.3 2.1-1.9.3-1.4-2.8-4.6.5-6.2-3.4-.5.8-3.6 5.9-1.7-1.5-2.8 5.2.5 1.1 1.5 1.6-2.3 2.6 1.9 3.9-1.5 4.3-1.6.2-1.4 7 1.6 3.3-3.1 3.7-3.3 2.2-6 2.7-2.7 2.8-2.9.6-2.8-1.6-.7-.1-2.1.3-.5.6-3.7 1.2-1.4-2.7.5-2.7.7-1.7-.1-5 2.9.1-2.1-2.9 1.9-3.7-5.8-5.8 1.5-2.6-1.8-1.9-1.1-2-1.4-2.7-4.8-2-1.7-.9 2.6-4.8 4.6-.2.4-1.2 5.5-6.7.4-3.1-2.8-1.9 1.9-3.3-.4-3.3 3-4.2-.1-3.1-2.9-2.8 2.2-2.2.9-3.7 2.4-2.4-.8-2.1 3.1-1.9-.3-1.8.6-2.4-.4-5.4z"/><path class="prefecture" data-name="岐阜県" d="M481.3 651l-5.5 2.4-1.1-4.2.5-.8 2-5.3-.8-3.5-3.9-5.3-1.1-4.8-2.1-2.5 3.7-7.6 2.9.2 4.7 1.2 6.7-2.1.7.8 2.8-1.4 3.1.5 2.1-3.6-1-3.2-4.1-4.9 1.8-4.3-.5-1.1.5-1.2 4.1-8.7-2.8-2.8 5.5-3.7 2.3 1.2 1 3.9 3.7-3.3.3-2.5 1.7-.8 3.1-4.3 2.6 1.1 3-1.6 2.1 2.3h9.1l1.5 1.8 2.2.2 2.9 2.8.1 3.1-3 4.2.4 3.3-1.9 3.3 2.8 1.9-.4 3.1-5.5 6.7-.4 1.2-4.6.2-2.6 4.8 1.7.9 4.8 2 1.4 2.7 1.1 2 1.8 1.9-1.5 2.6 5.8 5.8-1.9 3.7 2.1 2.9-2.9-.1.1 5-.7 1.7-6.6 3.8-5.7-3.8h-1.6l-4.2 2.3-.7-1-3.9-1.2-2.4-2.9v-1.5L504 641l-1.6.5-1.9 2.2h-1.4l-2.9 1.4-1.9-.6-.8-.2h-.2l-1 1.4-2.4 4.2-1.3 2.1.1.7-.3 5.6-3.8-2.7-2.9-4.2z"/><path class="prefecture" data-name="静岡県" d="M563.3 627l.5-.1 1.6 5.5.2 14.2 3.8-.7 1.8 1.6 1.5 5.9 4.5 1.8 1.5-1.9-.7-6.8.7-4 2.5-4 2.9 2.8 2.1 2.3 2.4-.3 6.4-1.8 2.6-.7 4.2-.1.9 4.1-.6 2.5-.6.3-.7 2.9 1.3 2.7.6.5.7.4.2 1.5 4 .4-1.6 2.6 1.1 4-.7 1.8 3.3 3.8-.6 3.4-2.4 1.7-2.6 5.3-1.6 2.9-4.2 5.4-3 1.6-3.3-2.2-1.9-3.5 1.7-3.7-1.3-3.5.7-2.3.3-4.8.2-5.1 3 .5 1.4-3.3-6.1-3.5-5.5 1-3.9 1-1.1 5.3-2.8 3.1-6.1 4-.5 4.2-2 3.7-2.3 1.6-2.4 4.6.6 2.6-.7 1.2-5.7-2.4-5.3-1.2-2.9-.1-5.5 1.3-6-1.3-3.9-.4-5.6.3-.6-4.5.9-2.3.3-2.4 6.9-4 .9-3.1 2.1-1.5v-2.7l3.6-5.1 2-3 .8-3.8 2.7-2.8 6-2.7 3.3-2.2 3.1-3.7-1.6-3.3 1.4-7 1.6-.2zm33.2 36.4v.1-.1z"/><path class="prefecture" data-name="愛知県" d="M498.7 662.3l-2.9-.7-.8 1.7-1.8 1.8-2.8-5-.6-.8-1.4-1 .3-5.6-.1-.7 1.3-2.1 2.4-4.2 1-1.4h.2l.8.2 1.9.6 2.9-1.4h1.4l1.9-2.2 1.6-.5 2.6 3.5v1.5l2.4 2.9 3.9 1.2.7 1 4.2-2.3h1.6l5.7 3.8 6.6-3.8-.5 2.7 1.4 2.7 3.7-1.2.5-.6 2.1-.3.7.1 2.8 1.6 2.9-.6-.8 3.8-2 3-3.6 5.1v2.7l-2.1 1.5-.9 3.1-6.9 4-.3 2.4-.9 2.3.6 4.5-7 1.7-8.7 3.1-6.2 1.1 1-4.5 2.9 1.1 8.1-5.8 1.2 3-.1-6.2-.5-1.6-3.7-.3-2.6 1.7-7.1.7-2.6-2.6.3-5.1.2-2.9-.4 1.4-1.6 4.1-1 3 1.1 3.9h-4.5l.5-3.9-2-4.2.2-3.3 2.2-4.2z"/><path class="prefecture" data-name="三重県" d="M483.4 678.1l-2.4 6.3 1.4 3.8 2.7 2 2.8 2.1 7.6 4.8 4.9 2 .5 2.4-2.7 1.5.8 5.4-2.2 2.7-2.6-2.2-3.6-.8-6.4 2.7-.8-1.9-4.3 3.7-2.6.5-2.8 1.3-3.5 1-1.3 2.5 1.2 2.4-2.3.6-.9.1 2.2 3.9-.5 3-2 1.4-8.3 6.4-1.7 4.1-1 2.9-3.6-.9-1.9-2.5-2.2-2.4.1-3.2.8.7.3-2.9 1.5-.5 3-.7 1.7-4.7 2.6-1.5 2.2.5.2-5.3.4-3.2-.9-1.6 1.9-3.4-.1-3.9-1.9-2.7.3-4.4 5.4-.8.7-4-2.6-.3-.2-1.6-2.7-.5-2.8-1.5.6-2.4 1.2-3.3-1.5-1.6V682l-1.6-3.2 2.5-.8 2.9-4.7 5.8 1.6 1.6-.8 4.1-2 1.4-2.9 1-1.9.3-.9-.2-1.1 1.2-4.1.6-4.5-2.2-1.5.3-1.8 5.5-2.4.4.4 2.9 4.2 3.8 2.7 1.4 1 .6.8 2.8 5-1-.9-2.4.9-1.3.9-1.1.8-.5 5.5z"/><path class="prefecture" data-name="滋賀県" d="M452.6 673.6l-3.7-.9.6-3.3-.7-.8-2.1-3.1 1.8-8.8-1.2-3.8 1.5-3.6-3.2-2.3-1.3-2.1 1.1-1.8 3.1-1.4 1.8.5 2.8-7 3.8-.5h3.9l.3-2.6 3.2-1.3-1.3-6.1 1.7-.4 4.6 2.7 2.1 2.5 1.1 4.8 3.9 5.3.8 3.5-2 5.3-.5.8 1.1 4.2-.3 1.8 2.2 1.5-.6 4.5-1.2 4.1.2 1.1-.3.9-1 1.9-1.4 2.9-4.1 2-1.6.8-5.8-1.6-2.9 4.7-2.5.8.3-1.7-4-2z"/><path class="prefecture" data-name="京都府" d="M444.3 644.9l1.3 2.1 3.2 2.3-1.5 3.6 1.2 3.8-1.8 8.8 2.1 3.1.7.8-.6 3.3 3.7.9.2 1.5 4 2-.3 1.7 1.6 3.2-1.4 1.9-2.8-2.1-2.4-.9-1.5 2.7-5.5-.8-1.2-.3-.9-1.4-.4-1.6.2-2.7-.4-.2-.2-.3-1.9-3 .2-.4-.8-1-1.2-1.5-.7-.3-.7-2.2-2 3.2-2.3-.7-2-1.2-.1-2.8-4.9-2.2-.5-.9 1-3.1-.4-1.9-4.5-2.7-3.1.5-5.6-6.2-2 1.7-3-2.9-3.3-1.4-1-2 .9-4 2.7 1.4 2.9-1.3.1-2.6-.5-5.1-5.3 1.4-3.2-4.6.4-4.2 2.7.7 3-2.6h2.2l3.3-2.9 6.6-1.5 3.6 4.5-1.7 1.6-4.4 6.5 5 2.5 7.9-4.6 1.7 2.2-1.8 2.2.9 4 .8.4 2.3 4.3 5.3.6 2.8 1.5z"/><path class="prefecture" data-name="大阪府" d="M427.1 686.6l-.3-1.6-.6-.9 1.9-1.8.7-.3-.7-2.1-.2-1.4-.8-.6.7-4.5.4-1.1 1.1-2-2.4-.3-3.5-2-.2-3.6 1.5-1.1.5.9 4.9 2.2.1 2.8 2 1.2 2.3.7 2-3.2.7 2.2.7.3 1.2 1.5.8 1-.2.4 1.9 3 .2.3.4.2-.2 2.7-.8-.2-.7 2.2-1.2 2.5v.1l-.1 2.3-.4 1.1-.3 1.7-.3.5 1.4 1.3-.4.9-1 1.4.3.3.4.6.4 1.5.3 2.5-.2 3.4-.8.7-.6.8-6 1.8-2.2-.7-1.6.8-.4.1-.5-.1-1.3.4-3.5.4-.4 1.1-2.4-.1-.5.3-3.2.2-4.8 2-.8-2.3 4.9-1.5 2.9-2.3 1.5-1.1.4-.5 2-1.8 1.6-1.5.6-2.4.3-.4 2-.7 1-1.3.8-1.5-.8-2.5.6-1.1.1-1.2zm-1.1 6.5l.3.2.7-.2.5.3-.7 1.1zm-7.3 6.1l-.4.8-.6.4-.4-.4h-.1l-.5-.5.5-.5.5.5.1.1z"/><path class="prefecture" data-name="兵庫県" d="M421.1 682.8l-2.4 1.1-1.9.3-1.6 1.4-.9 1.3-1.3.3-2.3.5-3.7-.6-3.6-1.2-3.6-2.5-1.1-.8-1.9-1-2.3-1.9-4.9-1.4-4.5 1.5-2.3-1.4-2.4 1.4-1.2.1-1.7 1.3-4.6.4.4-3.1-1.6-2.7-2-2.3 2.1-3-1.9-2.3 4.9-8.5.9-3.4h2.1l-1.2-2.8 1-2.8 1.6.8 3.9-2.8-.3-3.7-.1-1.6-1.2-3.8-1.8-.9-.2-1.7-.4-4.8-2.5-3.8 4-.8 3.2-2.1 2.2.6h8.2l3-.5.3.1.1.1.1.1.7.2.2.1.5.2h.2l.3.7.5-.8h.7l-.4 4.2 3.2 4.6 5.3-1.4.5 5.1-.1 2.6-2.9 1.3-2.7-1.4-.9 4 1 2 3.3 1.4 3 2.9 2-1.7 5.6 6.2 3.1-.5 4.5 2.7.4 1.9-1 3.1-1.5 1.1.2 3.6 3.5 2 2.4.3-1.1 2-.4 1.1-.7 4.5.8.6.2 1.4.7 2.1-.7.3-1.9 1.8-1.7.2-2.4-1.9zm-21.5 1l.1-.2.1-.1-.4.6zm1.1 17.8l-.1 2.7 2.7 5.3-4 1.5-3.5 2.3-3.5-.5-2.8-2.6.2-4.1 3.3-2 2.4-4.4 4.5-5.6 2.9-1.6 2.5-3.2 2 1.7z"/><path class="prefecture" data-name="奈良県" d="M442 679.5l.4 1.6.9 1.4 1.2.3 5.5.8 1.5-2.7 2.4.9 2.8 2.1 1.4-1.9v2.1l1.5 1.6-1.2 3.3-.6 2.4 2.8 1.5 2.7.5.2 1.6 2.6.3-.7 4-5.4.8-.3 4.4 1.9 2.7.1 3.9-1.9 3.4.9 1.6-.4 3.2-.2 5.3-2.2-.5-2.6 1.5-4.4 2.2-.3 3.2-1.5.5-.3 2.9-.8-.7-2.8-1.4-9.7-.3 1.6-5.4-4.2-4.7h-.2l-.1-1.8 3-3.3 3.6-4.2 1.6.9-1.4-3.7-1.4-6.7.6-.8.8-.7.2-3.4-.3-2.5-.4-1.5-.4-.6-.3-.3 1-1.4.4-.9-1.4-1.3.3-.5.3-1.7.4-1.1.1-2.3v-.1l1.2-2.5.7-2.2z"/><path class="prefecture" data-name="和歌山県" d="M415.1 716.2l-5.7-7.4 1-1.8.8 2.3 4.8-2 3.2-.2.5-.3 2.4.1.4-1.1 3.5-.4 1.3-.4.5.1.4-.1 1.6-.8 2.2.7 6-1.8 1.4 6.7 1.4 3.7-1.6-.9-3.6 4.2-3 3.3.1 1.8h.2l4.2 4.7-1.6 5.4 9.7.3 2.8 1.4-.1 3.2 2.2 2.4 1.9 2.5 3.6.9-2 3.2-1.8 3.2-.4.5-.1.2.1.3.6 1.3-2.1 1.9-8.6 4.1-4.6-1.8-2.8-.1-5.9-2.5-.1.1-3.6-3.3-.1-5.4-2.3-3.3-3.4-2.3-3.3-1.9-2.3-3.7-4.7-.4 2.3-4.4 1.6-2.7 1.8-1.9-1.5-1.5-1.3-3.4zm35.5 14.8l.3-3.2 4.4-2.2-1.7 4.7z"/><path class="prefecture" data-name="鳥取県" d="M376.6 628.4l2.5 3.8.4 4.8.2 1.7 1.8.9 1.2 3.8.1 1.6.3 3.7-3.9 2.8-1.6-.8-1-.5-5 3-3.2.4-2.4.9-1.2-6.4-5.3-1.7-.6-2.7-4.1.9-5.7 4.6-2.6-3.6-8-2.3-1.7 5.3-2.9 1.3.8 3-6.4.1.7 3.4-6.1 1.3-1 2.2-1.4-1.3-5.1.1 1.2-4.4-.1-4.1 7.9-2.8-.8-3.1 1.7-3.2-.6-3.4-3.9-2.9-.2-.3-1.1-2.7 2.3-1.3.8 2.9 5.3 2.9.8.2 1.9-.9 4.5-2.9 4.3.1 5.3 1.2 6.7.2 5.4-.9 4.4.4 5.5-.8 5.3-2.2z"/><path class="prefecture" data-name="島根県" d="M321.8 630.5l-2.3 1.3 1.1 2.7.2.3 3.9 2.9.6 3.4-1.7 3.2.8 3.1-7.9 2.8.1 4.1-1.2 4.4-6.6-1.7-2.6 1.2-2.6-1.8-1.6.6-4.8 5.9-4.1 2.2-2.7 2.7 3.6 3.4-4.4.2-4.2 2.7-4.9-1.8-2.7 1.4-4.2.9-8.4 3.7.3 3.3-1 4.2-3.8 4.8.7 1.9h-.7l-3.4 3 1.1 2-3 4.4-3.8-.4-2.5.3-2.8-3.4 1.4-4.7-4 .2-1.9-4.6 3-3.9-1.3-6.6 2.4.5 5.5-1.9 2.3-3 5-3.7 6.2-6.9 1.7-.7 4.7-4 3.9-1.6 3.7-3.6 1-2.5 8.7-5.7 4.4-3.3.6-4.2-2.1-2 5.2-1.9 8.5-2.2h2.9l6.4-3.6 2.3 1.1 4.2-.7zm3.5-47.6l4.6 4.5-.5 4.2-1.6 2.1-4.8-1-2.5-2 .7-4.9z"/><path class="prefecture" data-name="岡山県" d="M356.6 687.7l-1.2.6 3.1 1.8-3.8 3-1.4 4.2-2.6-.4-2.5-1-6.2-.6-1.6-1.8-3.3.6-1.6 1.7-4.1 1.4-2.1-2.4.3-3.8-3-4.5 1-3-1.5-2.7v-2l.6-3.8-2.3-2.7.1-.2-1.6-2.1.1-4 1.3-2.7-2.4-3.4 1-2.2 6.1-1.3-.7-3.4 6.4-.1-.8-3 2.9-1.3 1.7-5.3 8 2.3 2.6 3.6 5.7-4.6 4.1-.9.6 2.7 5.3 1.7 1.2 6.4 2.4-.9 3.2-.4 5-3 1 .5-1 2.8 1.2 2.8h-2.1l-.9 3.4-4.9 8.5 1.9 2.3-2.1 3 2 2.3 1.6 2.7-.4 3.1-4.6.3-2.9 5.8-3.1 1.6-2.8.1z"/><path class="prefecture" data-name="広島県" d="M279.2 700.3l-.8-.4-2.1-.2-1.5.2.1.1.2.3-6 5 .2 3-2.6.1-1.7-1.4-1.3-4.7-2.5-3.1.2-6.7-.7-1.9 3.8-4.8 1-4.2-.3-3.3 8.4-3.7 4.2-.9 2.7-1.4 4.9 1.8 4.2-2.7 4.4-.2-3.6-3.4 2.7-2.7 4.1-2.2 4.8-5.9 1.6-.6 2.6 1.8 2.6-1.2 6.6 1.7 5.1-.1 1.4 1.3 2.4 3.4-1.3 2.7-.1 4 1.6 2.1-.1.2 2.3 2.7-.6 3.8v2l1.5 2.7-1 3 3 4.5-.3 3.8-3.1 3.4-.4 2.3-4.6-.5h-.1v.1l-.5-1.7-1.4-.6-4.5 1.5-3 .3-.9 2.6-3.3.8-5.8-.1-2 1.7-3.5 1-1.3 2.1-6.2 2-4.2.3-2-6.2.3-3.4.5-.2-.1-.2V699.7zm4.4 9.3l.4 4.3-2.9-.2zm-2.5-5.8l.3 5.6-2.4 1.9-2.8-3.6zm22.3 1.7l-.8 4-3.7-.6z"/><path class="prefecture" data-name="山口県" d="M210.4 715.3l-3.8 2.7-4.3 1.5.5-6.1-2.3-2.7 3.4-3.7.1-4.2-2.5-3.1 1.9-4.2 4 .1 1.6-2.2 3.2-1.2 2.7.9 1.1 2.5h6.9l2.3-2.1h2.9l3.5-3.7 5.1-6.8 2.4-3.3 4.4-.9 1.3 6.6-3 3.9 1.9 4.6 4-.2-1.4 4.7 2.8 3.4 2.5-.3 3.8.4 3-4.4-1.1-2 3.4-3h.7l-.2 6.7 2.5 3.1 1.3 4.7 1.7 1.4 2.6-.1-.4.9.3 3.8-2.2.3.5 5.2-1.2 3.5-3.6 1.2-.2 4.1 1.1 2.8-1.8-1.1-2.8-3.8-1.6 1-6.3-4.9-2.6-2-.9-1.6-4.3-1.9-2.8 1-4.3.4-2.5 2-3.1-2.6-4 .4-1.7 1.7-.8 1.8-4.2 2.3-3.3-1.4-4.4-5.5zm57.6 7.5l2.6 1.7-1.6 3.8-2.7-.2-1.4-2.8z"/><path class="prefecture" data-name="徳島県" d="M386.1 719.1l-.5 5 2.5 2 2.2 2.1.4 6-1.5 2.8-5.5 2.4-2.1 3.1-2.8 1.6-4.2 1.8-.1 1.5-4.2 4.5-5.5-.9-1.9-3.1.5-4.6-5.3-.3.4-1.7-1.4-6.6-3.7-.4-.9 2-3.4-.5-1.6-2.4-4.5.4-4.3-2.9 1.4-2-.2-5.7 3.1-2.2 4-1.3.1-1.1 4-.3 4.8 1.6 2.6-2.5 3.5.1.7-2 1.1-.9 2.6-.4 2.6-.4 5.7.8 1.8 1 1.3-2 .1-1.1 6.5-1.6 2.6 3.5-.3 2.4z"/><path class="prefecture" data-name="香川県" d="M377.9 712.5l-.1 1.1-1.3 2-1.8-1-5.7-.8-2.6.4-2.6.4-1.1.9-.7 2-3.5-.1-2.6 2.5-4.8-1.6-4 .3-.1 1.1-4 1.3-3.1 2.2-4-2 1.5-.6 1.1-6.6-.4-2.7 3.7-1.8 2.8-2.5 2.1-1.5 1.2-.7-.1-.2-.3-.7 5.4-2.9 1.7 1.5 5.7 1.1 4-2.3.2 3.8 2.7-1.3 3.3 4.5 5 1.4zm-11.4-16.7l-1-2.1 7.6-2.6.4 4.6-3.7 1.1z"/><path class="prefecture" data-name="愛媛県" d="M290 733.6l1.5-6 2.2-.2 1-5 2-1.3 2.5-2 2.9-.4.5-3.2 2.7.1 4.1 8.2 3.2 3.5 5-1.3 4.4-2.4 3.4.6 5.2 1.2 5.3-4.2 4 2 .2 5.7-1.4 2-3.9.8-3.8 1.7-1.1.4-1.5-.5h-5l-1.5 1.1-2.4-1.1-1.1 2.2-5 2.4.1 1.1-4.5 4.7-1.6 4.5.5 2.2-2.3 3.4-1.3.3-4.4.1h-4.5l1.9 4.8 2.2 3.7-5.9 3.4v.3l-5.3 7.4-2.4-3.1 1.1 4.6-.4 3.1 1.5 5.1-2 2.8-2.9.6-2.9-1.5-1.8-1.3-.6-5.2-2.7-.7-.7-.4-1.2 2.2-.9-.2 1.1-2 1.4-.6.1.7 2.6.1.7-6.4 2.8-4.1-2.7-2.6.9-2.1-3.8.2-2-4.9 1.4-4.4-1.5-.7-.6-2.8 3.5-2 1.7-2.5 3.9-2.4 6.5-3.6 2.2-4.3zm-16.2 37.8l-.1.1z"/><path class="prefecture" data-name="高知県" d="M335 752.6l-6.2 3.4-2.4 1.2v.5l.5.6-9.2 2.7v1.7l-.6 6.1-4.9 6-3.1 3.6-.7 2.5-2.9-.4-1.9 3.3.3 4.1-2.5 6.7-5.1.3-4 1.8-4.7-2.4-3.2-.6 4.1-5-2.4-2.4 2-2.8-1.5-5.1.4-3.1-1.1-4.6 2.4 3.1 5.3-7.4v-.3l5.9-3.4-2.2-3.7-1.9-4.8h4.5l4.4-.1 1.3-.3 2.3-3.4-.5-2.2 1.6-4.5 4.5-4.7-.1-1.1 5-2.4 1.1-2.2 2.4 1.1 1.5-1.1h5l1.5.5 1.1-.4 3.8-1.7 3.9-.8 4.3 2.9 4.5-.4 1.6 2.4 3.4.5.9-2 3.7.4 1.4 6.6-.4 1.7 5.3.3-.5 4.6 1.9 3.1 5.5.9-3.7 6.3-2.7 8.8-4.3-2.3-3.2-3-1.1-2.7-.9-.3-1.8-1.2-.9-2.3-5.8-2-2.5-.1-4.4-1.3z"/><path class="prefecture" data-name="福岡県" d="M202.3 723.3l1.7-2.4 3.8-1.2-2.6 6.9.1 2 .9 3.7 1.8 3.8 1.8 3.4 3.9 1.3 1 .1-.8 1.6-.7 4.8-4.8-.3-3.9-.3-.4.1-1.7 1.1-1.3 1.7-1.3.4-2.3 4.4-1.4 1.7 1.4 3.2-2.2 2.2 2.3 6.2-2.2 2.8-5.1-3.3-3.3-.5-.8 2.9-4.7-.1.1 1-1.2.3-2.5 1.8.9 2.3-5.2.2.5-4.2-.2-.9-2.6-3.4-.1-1.8 1.4-4.4.6.3 1.7-1.5 3.4-3.6 2.9-.5.5-3-.1-2.7-3.7.4-.1-.1-1.3 1.6-.8.1-.5.2-.6-2h-1l-1.8-1.3-3.2-2.3-5.2.3-6.5-.6.6-1.5 5.4-2.1-.8-1.8 1.4-3.6 2.1-.6 4.5 4 2.5-.8h.7l2.1-.3.1-.6 1.4-5.8 1.5-.7 1.1-1.6 1-5.8 3.3-2 4.6.5 2-1.8 3.4 2 1.9.7 1.2-.3 2.3-1.1z"/><path class="prefecture" data-name="佐賀県" d="M156.9 745.7l6.5.6 5.2-.3 3.2 2.3 1.8 1.3h1l.6 2 .5-.2.8-.1 1.3-1.6.1.1 3.7-.4.1 2.7-.5 3-2.9.5-3.4 3.6-1.7 1.5-.6-.3-1.4 4.4.1 1.8-3.4-.6-2.6-3-.6 1.6-4.9 2.5 1.8 4.2 1.2 5.7-5.7-1.5-.5-.8-1.5-1.1h-.1l-5.7-5.7.2-.9 1.4-.1-.4-3.4-3.3-.2-2.7-1.4.1-3.1-1.7-2.2 1-4.1 2 .4 2-3.3-.4-3.3.5-3.8 2.2-2.1 2.3 1.4-.1 3.4 2.4 1.7z"/><path class="prefecture" data-name="長崎県" d="M142.9 775.2l-.9 5.4 2.7.8 2-.5 5.6 2.1-3.3-5 1.2-4-3.3-4.7-3.6-.5-.6-4.6-6.6-2.3.1-2.1-.5-1-3.5-2.2 2.5-3.3 1.4-2.8 7.8 2-1 4.1 1.7 2.2-.1 3.1 2.7 1.4 3.3.2.4 3.4-1.4.1-.2.9 5.7 5.7h.1l1.5 1.1.5.8 5.7 1.5-2.6 2.9.8 2.2 7.3.7 2.5 4.9-.4 3.1-1.5 3.7-3.9.9-3 2.7-4.3-3.3.3-1.5 4.1-2.9-1.2-3.7-1.8-.3-3-.1-5 1.7-4 2.6-1.8 3.4-4.8 1.9 2.6-6.4-2.6-4.6-3.5-2.5-1.3-3.8-1.7-5.2 3.3-6.9 2.3 1.6.3 2.9 2.7 1.3zm-10.4-27.8l.3 3.1-3.7 5.7-3.7 3.8-2.6-1.3 3.5-7.9 5.6-1.5zm-12.7-56.5l2.7 2 3.3.5-2.4 8-3.6 3.7-2.9-1.2 1-6.4zm13.9-21.3l1.8 2.7-1.5 6.5-5.4 5.7.7 3.6-2.3 1.5-3.5-1.1.3-5.3 3-4.7-.8-2.5 1-3.4 2.9.5zm8.4 51.3l3.3 1.5-1 2.1 1.2 3.8-3.7 2-2.9-2.7 1.4-5.3zm-50.2 59.8l.1 2.9 3.6 6.3-6.4-.2-1.9 2.1-6-.7 2.7-2.8-.7-3.9zm17.3-20.5v3.5l-2.1 6.9 4.4-.8.1 2.2-4.6 2.8-2.8-1.5.7-5.3 1.9-.2z"/><path class="prefecture" data-name="熊本県" d="M182.2 790.6l.6-2.3-1.9-3.5-4.6-3.7-1.8-2.3-.9-3.7 5.2-.2-.9-2.3 2.5-1.8 1.2-.3-.1-1 4.7.1.8-2.9 3.3.5 5.1 3.3.3.7 5.4 3.1.5 1.4 1.5-.2 1.2-3.8-1.8-3.1 1-2.4h4.4l1.4.4 2.8 4.9.9 1.7.2.4 2.1 6.8.2 3.1 3.5 4.8-3.7.7-1.4 3.8v.5l-6.4 5.7-.8 3.8-2.6-.7-1.8 2.2-.6 5.2 2.5 3.5 1.3 5.9-2.6 1.3-.4 2.5 2.5 2.8.3 2.5-5.9-.3-2.2 2.5-2-1.1-1.8.4-1.1 1.3-7-.6-3.3-3.2-2.9-2.3-.6 1.8-5.5 1.6-3.8-.2-1.9-3 2-3.4 1.9-.1 1.8-2.6 1.7-5.3 2.6-2.5 2-1.6-1.8-5 5.4-4.6v-1.2l-4.5-.4-2-1.9 5.7-3.4zm-14.4 20.2l.2-.2-5.5.1-1.9-3.4 4.1-1.7 1.8-1.8 2.3-.5 1.5 1.7 3.4-1.1-2.5 5.9-3.6 1.2zm-11.1-9.3l3.5-.1.7 4.7-.3 1.1.5 3.7-.8 3.3-3.2 1.9-3.7 4-5.6-1.5 2.3-2.8-1.4-1.8 2.4-6.7 1.7-4.4z"/><path class="prefecture" data-name="大分県" d="M230 762.9l3.5 1.4 5.3-1.7 3.8 2.3 6.7-.7-2.9 4.3-1.9 3.8 4.8.1-2.2 2 2.8 1.5 3.8.1-3.6.8-2.3 3.5 5.9 4-.5 6.3-6.5 4.5-1.1-4.6-6.1-.9-1.4 3.4-10.3-.6-1.4-3.9-2.9 1.3-3.6-1.2-.9-.3-3.5-4.8-.2-3.1-2.1-6.8-.2-.4-.9-1.7-2.8-4.9-1.4-.4h-4.4l-1 2.4 1.8 3.1-1.2 3.8-1.5.2-.5-1.4-5.4-3.1-.3-.7 2.2-2.8-2.3-6.2 2.2-2.2-1.4-3.2 1.4-1.7 2.3-4.4 1.3-.4 1.3-1.7 1.7-1.1.4-.1 3.9.3 4.8.3.7-4.8.8-1.6 4.5 2.4 7.4 1.3-.1-1.5 6.3-4.8 2.1-.7 3.7 1.5 3.3 5.6-1.2 7.9-1 2.4-3.2-1.2-1.1 3-1.3 1.5-4.9-.3z"/><path class="prefecture" data-name="宮崎県" d="M225.2 836.1l-3.5 10.9 1.6 4.7-1.3 3.8-.6 5.3-4.3 4.2-.3 3.9-.7 3.5-2.2 2.1-3.7.9-.8-2.8-4.1-2.5 2-2.8.1-6.7-1-.8-2.2.3-5.1-3.2-.2-4.5-1.3-2-5.1-1.8 1.8-4.8-2.5-3.1-2.3-.5-1.7-4.7-3.5-2.8 1-2.5 7 .6 1.1-1.3 1.8-.4 2 1.1 2.2-2.5 5.9.3-.3-2.5-2.5-2.8.4-2.5 2.6-1.3-1.3-5.9-2.5-3.5.6-5.2 1.8-2.2 2.6.7.8-3.8 6.4-5.7v-.5l1.4-3.8 3.7-.7.9.3 3.6 1.2 2.9-1.3 1.4 3.9 10.3.6 1.4-3.4 6.1.9 1.1 4.6-6 4.5-.5 3-2.7 1.4-1.8 4.5 2.2 1.2-4 2.1-.4 2.9-3.1 6-1.2 4-1.8 4.8-1.4 4.1z"/><path class="prefecture" data-name="鹿児島県" d="M181.9 862.9l-3.1.5-2.2-2.9 1.9-1.7h3.4l.5 4.1 4.2-1.5.9-2.7-.2-4.3-6-1.9-3.3 3.1-2.8 4.3-3 9.5 2.8 8.2 3.7 2.3-.2 3-4 3.4-3.9-1.1.1-2.4-2.3-2.4-4.7-.4-5.5-.7-3.2-6.9 4.5-3.3 2.4-3.7 1.4-4.2-.5-5.9-2.6-4-3.8-3.7-.3-1.4 3-7.4-1.7-5.4 1.3-1.3-1.1-4.2 3-1.1 2.7 1.4 3.4-1.4.6-1.9 1.9 3 3.8.2 5.5-1.6.6-1.8 2.9 2.3 3.3 3.2-1 2.5 3.5 2.8 1.7 4.7 2.3.5 2.5 3.1-1.8 4.8 5.1 1.8 1.3 2 .2 4.5 5.1 3.2 2.2-.3 1 .8-.1 6.7-2 2.8-2.5-1-2.7 1.7-2.2 2.9-.5 2.2 4.2 1.9-2.1 6.1-2.5-.2-3.2 5.3-3.3 1.3-5.4 1.4-4.4 2.2-2.9-2 4.7-3.3 1.6-5.5 1.6-4.2.7-2.2-1.9-5-3.2-4.8zm9.2 56.3l-.2-2.2 3.5-4.5.1-1.9 2.9-3.3 1.3 3.5-1.1 5.4-2.3 6.2-4.1 6.4-.1 1.5-.2 4.8-5.6-.1v-4.8l1.7-1.9 4.2-6.5zm-54.8-73.9l-1.1 4.5-2 3.4-3.7.6 2.4-4.7 3.5-.8zm199.8-736.5l-5.4 4.2v2l-1.1 1.5-3.8-.2v-2.5l-4.3-.4-1.5-1.3 2.4-.2 2.2-2.5 4-1.2 1.1-1.2 4.1-.5 1.3-2.5 2-.5 1.7 1.8-.3 1.1zm-178 711.7l1.2 5-2.7 3.4-2.1-2.4v-5.3zm8.9 107.2l7 4.6 1.6 1.9-1.2 4.3-3.8 3.3-3.4.6-4.1-.9-2.8-8.6zm-18.2-2.6l4.5 1.5-1.5 2.6zm173.9-810.7v1.6l2.8 3.1h-2.3l-1.5-3.6zm29.8-6.5l-1.6 3.7-2.3-.4zm-41.3 19h2.2l-.2 2.9 2.6 2.4-1.6 3-2.3 1.3-2-2.6.9-1.2-.4-5.2zm-12.9 20l1.6 1.7-2.1 1.2-1.3-.8v-2.2z"/><path class="prefecture" data-name="沖縄県" d="M263.1 193.6h.1v.1h.1l1.5-1.2 1.3-.9-.3-2-.3-.8.2-2.5 1.7-.4 3.1-3 2.4-.8 2-2.3-3-.8-.6-1.4 1.5-2.6 3.2.7-.7 1.7 1.3.8 2.1-.7 2.9-2.8 2.9-3.2 1.3-2.8 2.2 3.5-2.4 4.7-1.1 1.5-4.1 1.4.4 1.6-5.4 1.7-2 1.8-3.9 1 .1.2.9 2.9-1.2 1.1-.5 1.3-.6.5-1.1 2.4-.7 1 .2.8-.6 2.5-1.2 1.2-2.8.4.6-2.8-.9-1.1 1-2.8zm-129.7 60.7l.6 1.7-3.5 4.4-.3 4.2-3.1 1-2.1-1.6 1.8-3.5 2.6.1 2.1-1.9zm36.6-10.2l2.1 4.7 3.8 2-4.9 1.8-1.7-1.1v-2.4l1.6-2.1zm59.8-58.1l1.7 1.9-1.7 1.7-2.2-3.1zm-117.1 74.2l1.1 1.1 4.6 2.3-2.5 4.4-1.7-.8-5.8-.9-.6-1.1 3.6-1.6-.2-1.5z"/></g><path class="separator" d="M449.932 49.778l.014 100.392L249.777 350l-199.754.293"/><text fill="#aaa" text-anchor="end" font-size="24" x="995" y="990">경현치 (https://kkn.snack.studio)</text></svg>